<svg width="24" height="24" viewBox="0 0 26 26" fill="none" xmlns="http://www.w3.org/2000/svg">
<path d="M13.3706 1.21986L16.996 7.54245C17.1772 7.85839 17.4728 8.08372 17.815 8.16692L24.6648 9.83188C24.9823 9.90904 25.1075 10.3133 24.8938 10.5717L20.2847 16.1442C20.0543 16.4226 19.9415 16.7872 19.9719 17.1546L20.5798 24.5062C20.608 24.847 20.2804 25.0969 19.9802 24.9634L13.5061 22.0849C13.1826 21.941 12.8174 21.941 12.4939 22.0849L6.01982 24.9634C5.71964 25.0969 5.39203 24.847 5.42022 24.5062L6.02814 17.1546C6.05852 16.7872 5.94564 16.4226 5.71533 16.1442L1.10622 10.5717C0.892521 10.3133 1.01765 9.90904 1.33525 9.83188L8.18501 8.16692C8.5273 8.08372 8.82284 7.85839 9.00397 7.54245L12.6294 1.21986C12.7975 0.926713 13.2025 0.926713 13.3706 1.21986Z" stroke="#FECC1D" stroke-width="2"/>
</svg>
